<svg xmlns="http://www.w3.org/2000/svg" viewBox="0 0 32 32" width="32" height="32">
  <defs>
    <linearGradient id="brainGradient" x1="0%" y1="0%" x2="100%" y2="100%">
      <stop offset="0%" style="stop-color:#667eea;stop-opacity:1" />
      <stop offset="100%" style="stop-color:#764ba2;stop-opacity:1" />
    </linearGradient>
  </defs>
  <circle cx="16" cy="16" r="15" fill="url(#brainGradient)" stroke="#fff" stroke-width="1"/>
  <path d="M10 12c0-2 1-3 3-3s3 1 3 3c0 1 0 2 1 2s2-1 2-2c0-3-2-5-5-5s-5 2-5 5c0 2 1 3 1 5s-1 3-1 5c0 3 2 5 5 5s5-2 5-5c0-1-1-1-2-2s-1-1-1-2c0-2 1-3 3-3s3 1 3 3" 
        fill="none" stroke="#fff" stroke-width="1.5" stroke-linecap="round"/>
  <circle cx="12" cy="14" r="1" fill="#fff"/>
  <circle cx="20" cy="14" r="1" fill="#fff"/>
  <circle cx="16" cy="20" r="1" fill="#fff"/>
</svg>
